Coordinates
version=1
nRows=14
nColumns=36
inDegrees=yes

Units are S.I. units (second, meters, Newtons, ...)
If the header above contains a line with 'inDegrees', this indicates whether rotational values are in degrees (yes) or radians (no).

endheader
time	pelvis_tilt	pelvis_list	pelvis_rotation	pelvis_tx	pelvis_ty	pelvis_tz	hip_flexion_r	hip_adduction_r	hip_rotation_r	knee_angle_r	knee_angle_r_beta	ankle_angle_r	subtalar_angle_r	mtp_angle_r	hip_flexion_l	hip_adduction_l	hip_rotation_l	knee_angle_l	knee_angle_l_beta	ankle_angle_l	subtalar_angle_l	mtp_angle_l	lumbar_extension	lumbar_bending	lumbar_rotation	arm_flex_r	arm_add_r	arm_rot_r	elbow_flex_r	pro_sup_r	arm_flex_l	arm_add_l	arm_rot_l	elbow_flex_l	pro_sup_l
      4.44166670	    -14.82057276	      1.14121855	      7.40565947	      0.38574613	      0.80879283	      0.05292166	     45.66493883	     -4.22890220	      5.04505184	     61.15266469	      1.06731535	     23.98943095	    -24.35880615	     -7.49999987	     45.33473164	     -2.73377058	      5.75881731	     59.84274889	      1.04445300	     24.14558991	    -12.14016524	     -7.49999987	    -11.07281511	     -1.11228296	      2.16091119	    -22.09894986	    -16.87174393	    -25.40668947	     19.23620175	     59.18246609	    -12.36558293	    -24.33902477	     25.20733485	     33.29185538	     60.52188052
      4.44583330	    -14.49417675	      1.08554240	      7.36647623	      0.38716889	      0.80972394	      0.05156414	     44.94951306	     -4.22102346	      4.75028823	     60.58295015	      1.05737195	     23.91096774	    -24.44763784	     -7.49999987	     44.73765834	     -2.84626833	      5.72071074	     59.47365614	      1.03801112	     23.90693181	    -12.18810377	     -7.49999987	    -11.27766379	     -1.01750956	      2.24202163	    -22.07080778	    -16.71937012	    -26.01439359	     19.46314471	     59.34540347	    -12.01428499	    -23.80573331	     24.83037234	     32.57819051	     60.36958335
      4.45000000	    -14.51807706	      1.04831936	      7.35593622	      0.38800833	      0.80982987	      0.05071131	     44.73116549	     -4.24339311	      4.57072689	     60.31276312	      1.05265630	     24.20740468	    -24.17626441	     -7.49999987	     44.56618984	     -2.90738242	      5.60883722	     59.22240201	      1.03362591	     24.00778087	    -12.12731887	     -7.49999987	    -11.15523308	     -1.07876082	      2.18911542	    -22.22600325	    -16.56298536	    -26.16968402	     20.33512755	     59.35527197	    -12.16118871	    -23.64610754	     24.72534282	     33.00761472	     60.33154931
      4.45416670	    -14.02214091	      0.95977924	      7.32506379	      0.38784596	      0.81038494	      0.05009446	     44.05041382	     -4.18170071	      4.42712297	     60.09678596	      1.04888678	     24.19840628	    -24.24181920	     -7.49999987	     43.93291631	     -3.06047194	      5.55148465	     59.10901462	      1.03164692	     24.12176253	    -12.14169309	     -7.49999987	    -11.73309448	     -0.66356550	      3.03173061	    -23.12057026	    -14.36790464	    -39.64026671	     24.34534666	     68.01866485	    -10.65237129	    -22.52564639	     23.78551146	     30.67770876	     62.13191513
      4.45833330	    -13.79718247	      0.91283523	      7.42105027	      0.38616279	      0.81147984	      0.04986963	     43.78615799	     -4.22625889	      4.32335936	     59.99848326	      1.04717108	     24.11188263	    -24.03929272	     -7.49999987	     43.74589919	     -3.04282972	      5.54810367	     59.00821625	      1.02988766	     24.04284831	    -12.17164593	     -7.49999987	    -11.92416612	     -0.63741205	      2.70608365	    -22.80199403	    -14.21076263	    -40.31424821	     25.11463582	     67.78570166	    -10.52840148	    -22.08430892	     22.98663748	     30.28559671	     61.81303868
      4.46250000	    -13.73217656	      0.89462279	      7.46651793	      0.38723219	      0.81147269	      0.04839032	     43.67155185	     -4.38625274	      4.24410769	     60.00660978	      1.04731291	     24.03763824	    -24.21597085	     -7.49999987	     43.68590149	     -2.97328140	      5.58643989	     59.04917668	      1.03060255	     24.29009417	    -11.94533288	     -7.49999987	    -11.76987117	     -0.52330911	      2.79931344	    -22.90984841	    -13.44658888	    -44.05534483	     27.06259844	     67.77148860	    -10.38444436	    -21.35529276	     21.16383906	     29.80485487	     61.54185113
      4.46666670	    -13.75780185	      0.93974006	      7.53230303	      0.38598481	      0.81140712	      0.04824960	     43.73232131	     -4.57843598	      4.25300719	     60.04595625	      1.04799964	     24.06460811	    -24.13448798	     -7.49999987	     43.75920253	     -2.84080013	      5.57849616	     59.08812300	      1.03128230	     24.37421576	    -11.89310811	     -7.49999987	    -11.64495662	     -0.52910857	      2.68457881	    -22.73540722	    -13.19140138	    -45.16234933	     28.14289446	     67.58374402	    -10.23647999	    -20.96752578	     20.63543735	     29.76186229	     61.52190714
      4.47083330	    -13.69939970	      0.93395737	      7.54005543	      0.38480622	      0.81428772	      0.04787277	     43.52968394	     -4.60973791	      4.27989637	     59.54986284	      1.03934118	     23.46435868	    -24.13298438	     -7.49999987	     43.58546363	     -2.76021825	      5.64465599	     58.63727819	      1.02341357	     24.09940558	    -11.83475248	     -7.49999987	    -11.60014577	     -0.49896341	      2.70697125	    -22.46657183	    -12.89567177	    -46.40463390	     29.22117976	     67.24347479	     -9.98472374	    -20.58156092	     20.09487943	     29.86960901	     61.42475159
      4.47500000	    -13.72941230	      0.95386484	      7.55955750	      0.38547024	      0.81198625	      0.04632391	     43.60036709	     -4.77078281	      4.22686163	     59.59021127	      1.04004539	     23.66669927	    -23.71815651	     -7.49999987	     43.61711899	     -2.68937250	      5.60164434	     58.66735054	      1.02393843	     24.19652159	    -11.86662830	     -7.49999987	    -11.32588462	     -0.37244276	      3.10020737	    -22.66652927	    -12.13523687	    -50.09587574	     31.05093915	     67.84478817	     -9.46733833	    -19.99860301	     19.22593942	     29.28165354	     62.04063205
      4.47916670	    -13.78057168	      0.94979242	      7.58995432	      0.38483609	      0.81257782	      0.04680909	     43.76646599	     -4.84349917	      4.07875055	     59.64637898	      1.04102570	     23.98165391	    -23.26927000	     -7.49999987	     43.71147729	     -2.72723891	      5.48232666	     58.66190574	      1.02384340	     24.23401958	    -11.92687283	     -7.49999987	    -11.29471480	     -0.32094751	      2.97288332	    -22.68504151	    -11.89140899	    -50.01944053	     32.53589179	     67.38670613	     -9.78408361	    -19.93070476	     19.06223703	     30.67146311	     61.91745244
      4.48333330	    -13.84564900	      0.89892144	      7.59671019	      0.38578697	      0.81430700	      0.04538509	     43.67562561	     -4.89913331	      4.04445517	     59.22925047	      1.03374543	     23.55695514	    -23.48882167	     -7.49999987	     43.59769640	     -2.68742816	      5.48692292	     58.42025056	      1.01962572	     23.70325166	    -12.58401398	     -7.49999987	    -10.84028557	     -0.17614172	      2.93551171	    -21.86878345	    -12.12521484	    -51.21160932	     31.94770669	     67.35038391	     -9.27389141	    -19.03807395	     18.23939438	     29.02775397	     61.97046260
      4.48750000	    -13.93942295	      0.82327691	      7.66859930	      0.38579258	      0.81369017	      0.04556149	     43.65767558	     -4.91792129	      3.92663737	     58.99595033	      1.02967358	     23.77707468	    -23.16590105	     -7.49999987	     43.63608232	     -2.74405489	      5.52435340	     58.27947435	      1.01716871	     23.42840001	    -12.77219292	     -7.49999987	    -10.48272336	     -0.05172297	      2.98170215	    -21.54923566	    -12.18903325	    -51.94338252	     32.27200250	     67.38333010	     -9.07261461	    -18.58153065	     17.81268446	     28.79756675	     62.10773120
      4.49166670	    -14.24152983	      0.68491187	      7.66493115	      0.38538685	      0.81127810	      0.04288533	     43.95236651	     -5.05675204	      3.70313156	     58.89284862	      1.02787411	     23.97212969	    -22.99297991	     -7.49999987	     44.00168986	     -2.68899637	      5.54013412	     58.34589985	      1.01832806	     23.66256615	    -12.94513968	     -7.49999987	    -10.01510319	      0.10166062	      3.02862053	    -21.30383567	    -12.45505438	    -52.24880414	     32.55190713	     67.31000378	     -9.01469942	    -18.08762019	     17.42134090	     28.89047087	     62.20997810
      4.49583330	    -14.36054852	      0.66981913	      7.83444533	      0.38448081	      0.81250549	      0.04474323	     43.96031293	     -5.18843575	      3.54170931	     58.65449913	      1.02371413	     24.26564569	    -22.54877677	     -7.49999987	     44.21362204	     -2.56463895	      5.62590497	     58.24975142	      1.01664995	     23.42555837	    -12.88549243	     -7.49999987	     -9.71835657	      0.09741651	      3.03573146	    -20.70024697	    -12.84675433	    -52.11446362	     32.25577363	     67.23878755	     -8.68035183	    -17.72826812	     16.99053434	     28.74393541	     62.33574261
